<svg xmlns="http://www.w3.org/2000/svg" xmlns:xlink="http://www.w3.org/1999/xlink" width="2618" height="2510" viewBox="0 0 2618 2510">
  <defs fill="#000000">
    <style>
      .cls-1 {
        filter: url(#filter);
      }

      .cls-2 {
        fill: #000000;
      }

      .cls-2, .cls-3 {
        fill-rule: evenodd;
      }

      .cls-3 {
        fill: #000000;
      }
    </style>
    <filter id="filter" filterUnits="userSpaceOnUse" fill="#000000">
      <feFlood result="flood" fill="#000000"/>
      <feComposite result="composite" operator="in" in2="SourceGraphic" fill="#000000"/>
      <feBlend result="blend" in2="SourceGraphic" fill="#000000"/>
    </filter>
  </defs>
  <g class="cls-1">
    <path id="Color_Fill_18" data-name="Color Fill 18" class="cls-2" d="M521.517,150.39c185.179-152.1,418.012-29.3,580.793,61.057l121.78,76.769c-325.229-192.173-591.2-29.375-530.036,350.375,67.092,416.519,483.7,1006.249,896.756,1296.079,176.16,123.62,621.93,373.74,736.91,41.61,27.67-79.93,34.66-183,9.69-267.45q21.93,72.57,43.86,145.15c58.76,224.41,34.43,591.46-317,526.87-213.62-39.26-413.57-163.78-615.34-322.49C915.935,1639.08,186.642,599.2,521.517,150.39ZM1225.15,287.359h0Zm1111.6,1418.5h0Z" fill="#000000"/>
    <g id="TOP_PIN" data-name="TOP PIN">
      <g>
        <path id="Color_Fill_20" data-name="Color Fill 20" class="cls-3" d="M809,102l16,5v1h-4c-3.045-2.086-9.559-2.733-14-3v-2C808.754,102.369,807.971,102.807,809,102Zm87,25c43.06,3.558,82.266,27.071,116,42,85.5,37.837,160.46,85.651,234,135,25.57,17.156,49.52,35.359,74,53,7.19,5.182,21.86,11.3,25,20h-1c-8.68-8.813-20.27-14.179-31-21-6.56-4.166-12.7-10.56-19-15-8.91-6.284-18.08-10.749-27-17a1994.1,1994.1,0,0,0-227-138c-30.68-15.914-63.673-28.671-96-42C933.151,139.527,902.908,133.361,896,127ZM2234,1463c6.78,5.86,8.68,17.68,13,26,11.98,23.1,22.15,47.23,33,72,27.84,63.57,52.9,130.76,76,200,11.03,33.04,17.35,68.06,27,102q7.005,37.5,14,75,1.5,14.505,3,29c2.84,12.52,5.77,32.61,1,43h-1c-1.35-31.05-4.97-64.63-12-92-4.2-16.35-3.5-31.11-8-47-10.77-38.02-19.12-77.35-31-113-16.28-48.86-29.29-95.52-49-141-12.01-27.72-23.7-56.02-36-84C2254.39,1511.15,2239.93,1487.59,2234,1463Z" fill="#000000"/>
        <g>
          <path class="cls-2" d="M1298.64,641.686c91.87,32.357,306.75,70.577,482.25,3.324,205.51-102.3,408.67-276.423,481.33-341.195,0,0,54.11,30.5,90.89,67.155,37.95,37.8,69.51,72.246,69.51,72.246L1628.13,1088.18Z" fill="#000000"/>
          <path id="Rectangle_8_copy_3" data-name="Rectangle 8 copy 3" class="cls-2" d="M1993.94,1500.5c-12.54-96.61-5.24-314.79,97.01-472.51,142.78-179.789,355.3-342.348,433.75-399.97,0,0-18.59-59.282-46.78-102.893-29.08-44.984-56.2-83.022-56.2-83.022l-795.92,643.2Z" fill="#000000"/>
        </g>
        <path class="cls-2" d="M2212.05,347.494l43.43-35.172c55.91-43.571,297.72,291.493,259.87,320.988l-43.42,35.173Z" fill="#000000"/>
        <path id="Rectangle_8_copy" data-name="Rectangle 8 copy" class="cls-2" d="M1994.15,1500.76c-12.54-96.62-5.24-314.8,97.01-472.51,142.77-179.792,355.29-342.351,433.75-399.972L2393.47,465.937,1626.01,1085.56Z" fill="#000000"/>
      </g>
    </g>
    <g id="TOP_PIN_copy" data-name="TOP PIN copy">
      <g>
        <path class="cls-2" d="M592.843,1301.28c-71.466,239.41-253.326,518.33-436.794,763.86,0,0,9.874,43.7,31.253,85.44,21.841,42.64,55.2,83.34,55.2,83.34l636.658-522.35S799.376,1610.9,725.8,1507.04C654.883,1406.95,592.843,1301.28,592.843,1301.28Z" fill="#000000"/>
        <path id="Rectangle_8_copy_4" data-name="Rectangle 8 copy 4" class="cls-2" d="M1205.56,2061.87c-248.979,20.14-537.747,163.24-816.008,291.68,0,0-40.683-18.74-77.056-48.34-37.159-30.23-70.024-71.32-70.024-71.32L865.7,1694.95s92.808,115.41,189.771,211.73C1142.22,1992.86,1205.56,2061.87,1205.56,2061.87Z" fill="#000000"/>
      </g>
    </g>
    <path id="Elipse" class="cls-2" d="M855.335,426.074c99.815-79.31,303.695,95.178,397.785,173.7,254.53,212.409,1059.89,1161.7,881.22,1371.74-144.74,170.14-754.82-458.69-866.77-595.59C993.6,1040.89,766.379,596.475,855.335,426.074Z" fill="#000000"/>
  </g>
</svg>